<?xml version="1.0" encoding="UTF-8"?>
<!DOCTYPE svg PUBLIC "-//W3C//DTD SVG 1.1//EN" "http://www.w3.org/Graphics/SVG/1.1/DTD/svg11.dtd">
<svg xmlns="http://www.w3.org/2000/svg" version="1.1" width="387px" height="387px" style="shape-rendering:geometricPrecision; text-rendering:geometricPrecision; image-rendering:optimizeQuality; fill-rule:evenodd; clip-rule:evenodd" xmlns:xlink="http://www.w3.org/1999/xlink">
<g><path style="opacity:0.1" fill="#e75a71" d="M 173.5,2.5 C 175.167,2.5 176.833,2.5 178.5,2.5C 178.5,3.5 178.5,4.5 178.5,5.5C 176.833,5.5 175.167,5.5 173.5,5.5C 173.5,4.5 173.5,3.5 173.5,2.5 Z"/></g>
<g><path style="opacity:0.999" fill="#df1f3e" d="M 178.5,2.5 C 182.5,2.5 186.5,2.5 190.5,2.5C 191.167,5.16667 191.833,5.16667 192.5,2.5C 196.5,2.5 200.5,2.5 204.5,2.5C 204.5,3.5 204.5,4.5 204.5,5.5C 206.167,5.5 207.833,5.5 209.5,5.5C 210.449,6.15239 211.615,6.48572 213,6.5C 214.681,6.39174 215.848,5.72507 216.5,4.5C 218.5,4.5 220.5,4.5 222.5,4.5C 222.5,5.5 222.5,6.5 222.5,7.5C 224.415,7.78448 226.081,7.45115 227.5,6.5C 228.5,6.5 229.5,6.5 230.5,6.5C 230.958,9.30913 232.291,9.97579 234.5,8.5C 235.167,8.5 235.833,8.5 236.5,8.5C 236.5,9.5 236.5,10.5 236.5,11.5C 238.781,11.9227 240.448,11.256 241.5,9.5C 242.167,9.5 242.833,9.5 243.5,9.5C 243.5,10.5 243.5,11.5 243.5,12.5C 245.179,12.7148 246.179,12.0481 246.5,10.5C 247.167,10.8333 247.833,11.1667 248.5,11.5C 248.461,12.5832 248.127,13.5832 247.5,14.5C 253.232,15.4669 258.732,17.1335 264,19.5C 264.765,19.4301 265.265,19.0967 265.5,18.5C 266.167,18.5 266.833,18.5 267.5,18.5C 267.414,19.4959 267.748,20.3292 268.5,21C 271.985,22.8307 275.485,24.6641 279,26.5C 280.03,26.1639 280.53,25.4972 280.5,24.5C 280.833,24.5 281.167,24.5 281.5,24.5C 281.5,25.8333 281.5,27.1667 281.5,28.5C 283.179,28.7148 284.179,28.0481 284.5,26.5C 285.5,26.8333 286.167,27.5 286.5,28.5C 286.5,29.5 286.5,30.5 286.5,31.5C 289.878,32.6876 293.044,34.3543 296,36.5C 296.765,36.4301 297.265,36.0967 297.5,35.5C 299.027,35.427 300.027,36.0937 300.5,37.5C 300.5,38.5 300.5,39.5 300.5,40.5C 302.179,40.7148 303.179,40.0481 303.5,38.5C 304.5,38.8333 305.167,39.5 305.5,40.5C 305.679,42.6056 306.679,44.2723 308.5,45.5C 309.687,46.6527 310.687,46.6527 311.5,45.5C 312.833,46.1667 313.833,47.1667 314.5,48.5C 315.419,51.0892 317.086,53.0892 319.5,54.5C 322.159,58.1543 325.492,61.1543 329.5,63.5C 331.215,65.8818 333.215,67.8818 335.5,69.5C 336.833,70.1667 337.833,71.1667 338.5,72.5C 338.273,74.9328 339.273,76.5994 341.5,77.5C 342.741,81.4014 345.075,84.4014 348.5,86.5C 348.285,88.1788 348.952,89.1788 350.5,89.5C 354.951,97.6906 359.284,106.024 363.5,114.5C 367.445,124.274 370.779,134.274 373.5,144.5C 373.69,148.295 374.69,151.628 376.5,154.5C 376.5,156.5 376.5,158.5 376.5,160.5C 377.5,160.5 378.5,160.5 379.5,160.5C 379.5,161.5 379.5,162.5 379.5,163.5C 378.366,165.966 378.199,168.633 379,171.5C 380.011,172.337 381.178,172.67 382.5,172.5C 382.5,174.833 382.5,177.167 382.5,179.5C 381.173,183.783 380.507,188.449 380.5,193.5C 380.507,198.551 381.173,203.217 382.5,207.5C 382.5,208.5 382.5,209.5 382.5,210.5C 381.167,210.5 379.833,210.5 378.5,210.5C 378.5,211.833 378.5,213.167 378.5,214.5C 378.194,217.385 378.527,220.052 379.5,222.5C 379.5,223.5 379.5,224.5 379.5,225.5C 378.504,225.414 377.671,225.748 377,226.5C 375.783,231.84 374.616,237.174 373.5,242.5C 373.5,242.833 373.5,243.167 373.5,243.5C 372.084,248.217 370.418,252.883 368.5,257.5C 364.007,270.871 357.841,283.538 350,295.5C 349.51,296.793 349.343,298.127 349.5,299.5C 348.833,299.5 348.5,299.833 348.5,300.5C 345.263,302.262 342.929,304.929 341.5,308.5C 339.273,309.401 338.273,311.067 338.5,313.5C 335.516,315.09 333.183,317.423 331.5,320.5C 327.22,323.776 323.22,327.443 319.5,331.5C 316.08,333.915 313.413,336.915 311.5,340.5C 311.167,341.5 310.5,342.167 309.5,342.5C 309.44,341.957 309.107,341.624 308.5,341.5C 306.799,342.554 305.132,343.554 303.5,344.5C 300.721,345.609 299.054,347.609 298.5,350.5C 297.833,351.167 297.167,351.833 296.5,352.5C 295.14,349.985 294.14,350.318 293.5,353.5C 293.167,354.5 292.5,355.167 291.5,355.5C 291.631,354.761 291.464,354.094 291,353.5C 288.297,355.902 285.13,357.235 281.5,357.5C 281.5,358.833 281.5,360.167 281.5,361.5C 281.167,361.5 280.833,361.5 280.5,361.5C 280.53,360.503 280.03,359.836 279,359.5C 276.824,360.516 275.657,362.182 275.5,364.5C 274.833,364.5 274.167,364.5 273.5,364.5C 272.377,363.243 271.711,363.576 271.5,365.5C 271.167,365.5 270.833,365.5 270.5,365.5C 270.265,364.903 269.765,364.57 269,364.5C 265.72,365.282 262.553,366.282 259.5,367.5C 259.5,368.833 259.5,370.167 259.5,371.5C 258.833,371.5 258.167,371.5 257.5,371.5C 257.44,370.957 257.107,370.624 256.5,370.5C 255.614,371.325 255.281,372.325 255.5,373.5C 254.833,373.5 254.167,373.5 253.5,373.5C 253.179,371.952 252.179,371.285 250.5,371.5C 250.5,372.5 250.5,373.5 250.5,374.5C 249.833,374.5 249.167,374.5 248.5,374.5C 247.791,373.596 246.791,373.263 245.5,373.5C 245.5,374.5 245.5,375.5 245.5,376.5C 244.833,376.5 244.167,376.5 243.5,376.5C 243.03,375.307 242.03,374.64 240.5,374.5C 237.761,374.547 237.095,375.547 238.5,377.5C 237.833,377.5 237.167,377.5 236.5,377.5C 235.081,376.549 233.415,376.216 231.5,376.5C 231.5,377.5 231.5,378.5 231.5,379.5C 230.833,379.5 230.167,379.5 229.5,379.5C 227.721,377.656 225.388,376.99 222.5,377.5C 222.5,378.833 222.5,380.167 222.5,381.5C 221.5,381.5 220.5,381.5 219.5,381.5C 219.5,381.167 219.5,380.833 219.5,380.5C 216.375,379.521 213.042,379.187 209.5,379.5C 209.5,380.833 209.5,382.167 209.5,383.5C 207.833,383.5 206.167,383.5 204.5,383.5C 200.893,382.176 196.893,381.509 192.5,381.5C 188.107,381.509 184.107,382.176 180.5,383.5C 178.167,383.5 175.833,383.5 173.5,383.5C 173.5,382.167 173.5,380.833 173.5,379.5C 169.958,379.187 166.625,379.521 163.5,380.5C 163.5,380.833 163.5,381.167 163.5,381.5C 161.5,381.5 159.5,381.5 157.5,381.5C 157.719,380.325 157.386,379.325 156.5,378.5C 155.893,378.624 155.56,378.957 155.5,379.5C 153.833,379.5 152.167,379.5 150.5,379.5C 150.042,376.691 148.709,376.024 146.5,377.5C 145.5,377.5 144.5,377.5 143.5,377.5C 143.586,376.504 143.252,375.671 142.5,375C 140.711,374.086 138.877,373.253 137,372.5C 135.624,372.684 134.791,373.351 134.5,374.5C 133.833,374.5 133.167,374.5 132.5,374.5C 132.5,373.5 132.5,372.5 132.5,371.5C 130.821,371.285 129.821,371.952 129.5,373.5C 128.508,373.672 127.842,373.338 127.5,372.5C 127.5,371.5 127.5,370.5 127.5,369.5C 125.821,369.285 124.821,369.952 124.5,371.5C 122.216,370.971 120.216,369.971 118.5,368.5C 116.776,366.125 114.443,364.459 111.5,363.5C 108.79,360.822 105.457,359.489 101.5,359.5C 100.1,358.9 99.0998,357.9 98.5,356.5C 95.5362,354.893 92.5362,353.226 89.5,351.5C 86.6418,350.205 83.9752,348.539 81.5,346.5C 80.8933,346.624 80.56,346.957 80.5,347.5C 78.9731,347.573 77.9731,346.906 77.5,345.5C 76.7974,343.284 75.4641,341.451 73.5,340C 72.5632,339.308 71.8966,339.475 71.5,340.5C 70.5,340.167 69.8333,339.5 69.5,338.5C 67.5216,334.522 64.5216,331.522 60.5,329.5C 59.5,327.833 58.1667,326.5 56.5,325.5C 53.4602,322.461 50.7935,319.127 48.5,315.5C 47.0613,313.64 45.3947,311.973 43.5,310.5C 42.5977,308.659 41.2644,307.326 39.5,306.5C 38.6769,303.649 37.3435,300.982 35.5,298.5C 34.675,297.614 33.675,297.281 32.5,297.5C 32.5,296.833 32.1667,296.5 31.5,296.5C 31.3915,293.101 30.0582,290.434 27.5,288.5C 27.5,288.167 27.5,287.833 27.5,287.5C 25.5356,282.579 23.2023,277.912 20.5,273.5C 18.0965,265.571 14.7631,258.237 10.5,251.5C 10.5,250.833 10.5,250.167 10.5,249.5C 11.1239,249.083 11.4573,248.416 11.5,247.5C 10.0629,245.423 9.39622,243.09 9.5,240.5C 8.83858,237.213 8.33858,233.88 8,230.5C 6.67271,227.489 5.50604,224.489 4.5,221.5C 4.5,201.833 4.5,182.167 4.5,162.5C 5.73838,160.786 6.40505,158.786 6.5,156.5C 8.13848,148.611 10.4718,140.778 13.5,133C 14.5034,130.654 14.5034,128.487 13.5,126.5C 13.5,126.167 13.5,125.833 13.5,125.5C 14.5,125.5 15.5,125.5 16.5,125.5C 17.5856,120.905 19.2522,116.571 21.5,112.5C 22.4433,109.34 23.7767,106.34 25.5,103.5C 28.0168,100.981 29.6834,97.9805 30.5,94.5C 31.9313,93.2196 32.5979,91.5529 32.5,89.5C 32.5,89.1667 32.5,88.8333 32.5,88.5C 35.41,86.7609 37.91,84.4276 40,81.5C 40.49,80.2068 40.6567,78.8734 40.5,77.5C 42.4044,77.2624 43.7377,76.2624 44.5,74.5C 47.2085,72.7339 49.2085,70.4006 50.5,67.5C 50.8333,66.8333 51.1667,66.1667 51.5,65.5C 57.2418,60.4249 62.5752,55.0915 67.5,49.5C 68.1667,48.1667 69.1667,47.1667 70.5,46.5C 73.0949,46.9597 74.7615,45.6263 75.5,42.5C 76.1667,41.1667 77.1667,40.1667 78.5,39.5C 78.5173,41.0281 79.184,41.5281 80.5,41C 82.4086,39.1166 84.5753,37.6166 87,36.5C 87.4828,35.552 87.6495,34.552 87.5,33.5C 88.1667,33.1667 88.8333,32.8333 89.5,32.5C 89.369,33.2389 89.5357,33.9056 90,34.5C 91.8705,32.7811 94.0372,31.7811 96.5,31.5C 96.5,30.5 96.5,29.5 96.5,28.5C 98.2849,26.8656 100.285,25.5323 102.5,24.5C 102.47,25.4972 102.97,26.1639 104,26.5C 106.225,24.7577 108.725,23.591 111.5,23C 112.252,22.3292 112.586,21.4959 112.5,20.5C 113.167,20.1667 113.833,19.8333 114.5,19.5C 114.369,20.3764 114.702,21.0431 115.5,21.5C 120.072,19.4698 124.739,17.8032 129.5,16.5C 129.5,15.1667 129.5,13.8333 129.5,12.5C 130.167,12.5 130.833,12.5 131.5,12.5C 131.369,13.3764 131.702,14.0431 132.5,14.5C 133.386,13.675 133.719,12.675 133.5,11.5C 134.5,11.5 135.5,11.5 136.5,11.5C 137.209,12.404 138.209,12.7373 139.5,12.5C 139.5,11.5 139.5,10.5 139.5,9.5C 140.167,9.5 140.833,9.5 141.5,9.5C 141.369,10.3764 141.702,11.0431 142.5,11.5C 144.213,11.1207 145.213,10.1207 145.5,8.5C 146.5,8.5 147.5,8.5 148.5,8.5C 149.601,9.59832 150.934,9.76498 152.5,9C 153.252,8.32924 153.586,7.4959 153.5,6.5C 154.833,6.5 156.167,6.5 157.5,6.5C 159.265,7.46138 161.265,7.79472 163.5,7.5C 163.5,6.5 163.5,5.5 163.5,4.5C 164.5,4.5 165.5,4.5 166.5,4.5C 167.152,5.72507 168.319,6.39174 170,6.5C 171.385,6.48572 172.551,6.15239 173.5,5.5C 175.167,5.5 176.833,5.5 178.5,5.5C 178.5,4.5 178.5,3.5 178.5,2.5 Z M 219.5,71.5 C 218.326,72.5137 217.66,73.847 217.5,75.5C 217.5,75.8333 217.5,76.1667 217.5,76.5C 213.737,82.3646 210.737,88.698 208.5,95.5C 207.68,97.8123 206.847,100.146 206,102.5C 205.275,103.059 204.442,103.392 203.5,103.5C 194.42,100.366 185.42,97.3657 176.5,94.5C 176.167,94.5 175.833,94.5 175.5,94.5C 156.46,88.1715 136.793,84.5049 116.5,83.5C 115.01,81.7202 113.01,81.0535 110.5,81.5C 108.167,81.5 105.833,81.5 103.5,81.5C 102.292,80.7659 100.959,80.4326 99.5,80.5C 100.694,79.7281 101.694,78.7281 102.5,77.5C 108.613,73.9376 114.613,70.1042 120.5,66C 154.026,48.3034 189.026,43.6367 225.5,52C 225.833,52.3333 226.167,52.6667 226.5,53C 223.746,59.0078 221.413,65.1744 219.5,71.5 Z M 283.5,79.5 C 284.614,82.4036 286.614,84.4036 289.5,85.5C 291.266,88.2085 293.599,90.2085 296.5,91.5C 298.291,94.1316 300.291,96.4649 302.5,98.5C 306.147,104.14 310.147,109.473 314.5,114.5C 314.953,116.565 315.953,118.232 317.5,119.5C 321.761,129.113 325.928,138.779 330,148.5C 332.769,159.055 334.936,169.722 336.5,180.5C 336.591,182.698 335.925,183.031 334.5,181.5C 332.423,177.124 329.089,174.124 324.5,172.5C 322.761,169.757 320.427,167.757 317.5,166.5C 317.586,165.504 317.252,164.671 316.5,164C 311.014,160.671 305.68,157.171 300.5,153.5C 300.158,152.662 299.492,152.328 298.5,152.5C 293.687,147.72 288.021,144.053 281.5,141.5C 281.027,140.094 280.027,139.427 278.5,139.5C 271.832,134.495 264.499,130.495 256.5,127.5C 255.558,127.608 254.725,127.941 254,128.5C 252.198,133.095 250.698,137.762 249.5,142.5C 247.483,145.899 245.816,149.566 244.5,153.5C 243.89,154.391 243.557,155.391 243.5,156.5C 242.503,156.47 241.836,156.97 241.5,158C 239.869,161.39 239.036,164.89 239,168.5C 244.464,171.264 249.964,173.931 255.5,176.5C 256.29,177.401 257.29,178.068 258.5,178.5C 258.369,179.376 258.702,180.043 259.5,180.5C 265.789,183.489 271.789,186.822 277.5,190.5C 281.587,194.922 286.254,198.589 291.5,201.5C 293.89,204.229 296.557,206.562 299.5,208.5C 306.562,216.283 313.396,224.283 320,232.5C 323.459,238.376 324.959,244.709 324.5,251.5C 317.559,256.035 309.892,258.368 301.5,258.5C 291.178,259.776 280.845,259.776 270.5,258.5C 253.244,256.902 236.244,253.902 219.5,249.5C 219.167,249.5 218.833,249.5 218.5,249.5C 217.7,247.259 216.034,246.259 213.5,246.5C 212.609,245.89 211.609,245.557 210.5,245.5C 210.167,245.5 209.833,245.5 209.5,245.5C 205.954,244.041 202.288,242.874 198.5,242C 197.572,241.612 196.905,240.945 196.5,240C 203.319,224.379 209.652,208.546 215.5,192.5C 216.497,192.53 217.164,192.03 217.5,191C 220.948,182.148 224.282,173.315 227.5,164.5C 231.349,158.425 234.349,151.425 236.5,143.5C 238.679,139.797 240.345,135.797 241.5,131.5C 242.338,131.158 242.672,130.492 242.5,129.5C 243.79,128.942 244.623,127.942 245,126.5C 252.467,107.358 260.3,88.6916 268.5,70.5C 273.721,73.2711 278.721,76.2711 283.5,79.5 Z M 135.5,130.5 C 135.833,130.5 136.167,130.5 136.5,130.5C 144.813,132.497 153.146,134.497 161.5,136.5C 162.167,136.5 162.833,136.5 163.5,136.5C 163.577,137.75 164.244,138.583 165.5,139C 169.895,140.015 174.229,141.182 178.5,142.5C 178.833,142.5 179.167,142.5 179.5,142.5C 182.258,143.377 184.924,144.544 187.5,146C 183.297,153.767 179.964,161.933 177.5,170.5C 171.862,180.13 167.529,190.463 164.5,201.5C 162.929,204.008 161.262,206.508 159.5,209C 160.056,209.383 160.389,209.883 160.5,210.5C 159.503,210.47 158.836,210.97 158.5,212C 157.139,215.889 155.639,219.722 154,223.5C 153.329,222.748 152.496,222.414 151.5,222.5C 144.247,217.868 136.58,213.701 128.5,210C 125.953,207.946 123.286,206.113 120.5,204.5C 120.167,204.5 119.833,204.5 119.5,204.5C 115.21,201.015 110.543,198.015 105.5,195.5C 100.929,190.541 95.5961,186.541 89.5,183.5C 80.466,174.468 71.7993,165.134 63.5,155.5C 63.6716,154.508 63.3382,153.842 62.5,153.5C 62.7709,151.62 62.1042,150.287 60.5,149.5C 60.2041,147.597 59.5375,145.93 58.5,144.5C 56.6034,139.92 57.6034,136.087 61.5,133C 72.3164,128.426 83.6497,126.26 95.5,126.5C 108.922,127.083 122.256,128.417 135.5,130.5 Z M 47.5,203.5 C 48.8333,206.833 51.1667,209.167 54.5,210.5C 55.5846,212.587 57.2512,213.92 59.5,214.5C 60.9108,216.914 62.9108,218.581 65.5,219.5C 65.4142,220.496 65.7476,221.329 66.5,222C 71.2185,225.688 76.2185,228.855 81.5,231.5C 82.9599,233.463 84.6266,235.296 86.5,237C 91.9727,239.656 97.306,242.489 102.5,245.5C 102.842,246.338 103.508,246.672 104.5,246.5C 106.401,248.796 108.734,250.629 111.5,252C 128.228,260.847 145.228,269.014 162.5,276.5C 162.833,276.5 163.167,276.5 163.5,276.5C 170.637,280.325 178.303,282.992 186.5,284.5C 189.145,286.31 192.145,287.31 195.5,287.5C 197.934,289.874 200.934,291.208 204.5,291.5C 204.833,291.5 205.167,291.5 205.5,291.5C 210.654,293.455 215.987,294.788 221.5,295.5C 228.294,297.357 235.294,298.69 242.5,299.5C 243.919,300.451 245.585,300.784 247.5,300.5C 252.583,302.078 257.916,302.745 263.5,302.5C 263.611,303.117 263.944,303.617 264.5,304C 271.014,304.58 277.347,305.413 283.5,306.5C 276.512,310.839 269.846,315.506 263.5,320.5C 255.438,324.19 247.105,327.357 238.5,330C 237.429,330.852 236.429,331.685 235.5,332.5C 209.954,339.505 183.954,340.171 157.5,334.5C 157.167,334.167 156.833,333.833 156.5,333.5C 157.848,329.826 159.181,326.159 160.5,322.5C 164.886,315.047 168.219,307.047 170.5,298.5C 173.479,294.732 172.812,291.566 168.5,289C 159.036,285.765 149.703,282.265 140.5,278.5C 139.486,277.326 138.153,276.66 136.5,276.5C 136.167,276.5 135.833,276.5 135.5,276.5C 134.923,274.348 133.756,274.015 132,275.5C 128.53,283.416 125.363,291.416 122.5,299.5C 122.5,299.833 122.5,300.167 122.5,300.5C 121.233,302.311 119.9,304.144 118.5,306C 119.056,306.383 119.389,306.883 119.5,307.5C 117.621,307.393 117.288,307.893 118.5,309C 116.712,310.832 115.378,312.998 114.5,315.5C 109.806,312.821 105.139,310.155 100.5,307.5C 95.4896,301.49 89.823,296.157 83.5,291.5C 83.3304,288.796 81.9971,287.129 79.5,286.5C 79.5,285.167 78.8333,284.5 77.5,284.5C 77.2624,282.596 76.2624,281.262 74.5,280.5C 71.3321,274.158 67.6654,268.158 63.5,262.5C 61.6837,258.369 59.6837,254.369 57.5,250.5C 55.0317,242.631 52.865,234.631 51,226.5C 50.1482,225.429 49.3149,224.429 48.5,223.5C 48.5,222.833 48.5,222.167 48.5,221.5C 48.0392,216.314 47.3725,211.147 46.5,206C 46.528,204.93 46.8614,204.097 47.5,203.5 Z"/></g>
<g><path style="opacity:0.094" fill="#e75970" d="M 204.5,2.5 C 206.167,2.5 207.833,2.5 209.5,2.5C 209.5,3.5 209.5,4.5 209.5,5.5C 207.833,5.5 206.167,5.5 204.5,5.5C 204.5,4.5 204.5,3.5 204.5,2.5 Z"/></g>
<g><path style="opacity:0.31" fill="#ed8394" d="M 190.5,2.5 C 191.167,2.5 191.833,2.5 192.5,2.5C 191.833,5.16667 191.167,5.16667 190.5,2.5 Z"/></g>
<g><path style="opacity:0.063" fill="#f09ba8" d="M 209.5,2.5 C 211.685,2.70356 213.685,3.37023 215.5,4.5C 213.735,5.46138 211.735,5.79472 209.5,5.5C 209.5,4.5 209.5,3.5 209.5,2.5 Z"/></g>
<g><path style="opacity:0.294" fill="#f09aa7" d="M 173.5,2.5 C 173.5,3.5 173.5,4.5 173.5,5.5C 171.265,5.79472 169.265,5.46138 167.5,4.5C 169.315,3.37023 171.315,2.70356 173.5,2.5 Z"/></g>
<g><path style="opacity:0.724" fill="#e85c71" d="M 166.5,4.5 C 166.833,4.5 167.167,4.5 167.5,4.5C 169.265,5.46138 171.265,5.79472 173.5,5.5C 172.551,6.15239 171.385,6.48572 170,6.5C 168.319,6.39174 167.152,5.72507 166.5,4.5 Z"/></g>
<g><path style="opacity:0.373" fill="#e7596f" d="M 215.5,4.5 C 215.833,4.5 216.167,4.5 216.5,4.5C 215.848,5.72507 214.681,6.39174 213,6.5C 211.615,6.48572 210.449,6.15239 209.5,5.5C 211.735,5.79472 213.735,5.46138 215.5,4.5 Z"/></g>
<g><path style="opacity:0.565" fill="#eb6f81" d="M 163.5,4.5 C 163.5,5.5 163.5,6.5 163.5,7.5C 161.265,7.79472 159.265,7.46138 157.5,6.5C 159.114,4.9254 161.114,4.25873 163.5,4.5 Z"/></g>
<g><path style="opacity:0.275" fill="#ef909e" d="M 222.5,4.5 C 224.011,5.50249 225.678,6.16916 227.5,6.5C 226.081,7.45115 224.415,7.78448 222.5,7.5C 222.5,6.5 222.5,5.5 222.5,4.5 Z"/></g>
<g><path style="opacity:0.176" fill="#f092a0" d="M 230.5,6.5 C 232.153,6.6596 233.486,7.32627 234.5,8.5C 232.291,9.97579 230.958,9.30913 230.5,6.5 Z"/></g>
<g><path style="opacity:0.647" fill="#ec7a8b" d="M 153.5,6.5 C 153.586,7.4959 153.252,8.32924 152.5,9C 150.934,9.76498 149.601,9.59832 148.5,8.5C 149.78,7.06873 151.447,6.40206 153.5,6.5 Z"/></g>
<g><path style="opacity:0.153" fill="#f3afb9" d="M 238.5,8.5 C 239.492,8.32842 240.158,8.66175 240.5,9.5C 239.377,10.7574 238.711,10.4241 238.5,8.5 Z"/></g>
<g><path style="opacity:0.373" fill="#ee8191" d="M 145.5,8.5 C 145.213,10.1207 144.213,11.1207 142.5,11.5C 141.702,11.0431 141.369,10.3764 141.5,9.5C 142.833,9.16667 144.167,8.83333 145.5,8.5 Z"/></g>
<g><path style="opacity:0.522" fill="#e75a6f" d="M 236.5,8.5 C 237.167,8.5 237.833,8.5 238.5,8.5C 238.711,10.4241 239.377,10.7574 240.5,9.5C 240.833,9.5 241.167,9.5 241.5,9.5C 240.448,11.256 238.781,11.9227 236.5,11.5C 236.5,10.5 236.5,9.5 236.5,8.5 Z"/></g>
<g><path style="opacity:0.357" fill="#ef8c9b" d="M 139.5,9.5 C 139.5,10.5 139.5,11.5 139.5,12.5C 138.209,12.7373 137.209,12.404 136.5,11.5C 137.29,10.5987 138.29,9.93205 139.5,9.5 Z"/></g>
<g><path style="opacity:0.22" fill="#ee8292" d="M 243.5,9.5 C 244.609,9.55688 245.609,9.89022 246.5,10.5C 246.179,12.0481 245.179,12.7148 243.5,12.5C 243.5,11.5 243.5,10.5 243.5,9.5 Z"/></g>
<g><path style="opacity:0.031" fill="#f2a0ac" d="M 128.5,12.5 C 128.719,13.675 128.386,14.675 127.5,15.5C 126.893,15.3764 126.56,15.0431 126.5,14.5C 126.833,13.5 127.5,12.8333 128.5,12.5 Z"/></g>
<g><path style="opacity:0.263" fill="#ef8b9a" d="M 133.5,11.5 C 133.719,12.675 133.386,13.675 132.5,14.5C 131.702,14.0431 131.369,13.3764 131.5,12.5C 131.842,11.6618 132.508,11.3284 133.5,11.5 Z"/></g>
<g><path style="opacity:0.267" fill="#f19eab" d="M 250.5,11.5 C 251.167,11.8333 251.833,12.1667 252.5,12.5C 252.631,13.3764 252.298,14.0431 251.5,14.5C 250.614,13.675 250.281,12.675 250.5,11.5 Z"/></g>
<g><path style="opacity:0.176" fill="#f29eab" d="M 259.5,14.5 C 260.5,14.8333 261.167,15.5 261.5,16.5C 261.44,17.0431 261.107,17.3764 260.5,17.5C 259.614,16.675 259.281,15.675 259.5,14.5 Z"/></g>
<g><path style="opacity:0.969" fill="#e4455a" d="M 248.5,11.5 C 249.167,11.5 249.833,11.5 250.5,11.5C 250.281,12.675 250.614,13.675 251.5,14.5C 252.298,14.0431 252.631,13.3764 252.5,12.5C 254.737,13.449 257.071,14.1156 259.5,14.5C 259.281,15.675 259.614,16.675 260.5,17.5C 261.107,17.3764 261.44,17.0431 261.5,16.5C 263.38,16.2291 264.713,16.8958 265.5,18.5C 265.265,19.0967 264.765,19.4301 264,19.5C 258.732,17.1335 253.232,15.4669 247.5,14.5C 248.127,13.5832 248.461,12.5832 248.5,11.5 Z"/></g>
<g><path style="opacity:0.576" fill="#e64f63" d="M 128.5,12.5 C 128.833,12.5 129.167,12.5 129.5,12.5C 129.5,13.8333 129.5,15.1667 129.5,16.5C 124.739,17.8032 120.072,19.4698 115.5,21.5C 114.702,21.0431 114.369,20.3764 114.5,19.5C 118.307,17.4507 122.307,15.7841 126.5,14.5C 126.56,15.0431 126.893,15.3764 127.5,15.5C 128.386,14.675 128.719,13.675 128.5,12.5 Z"/></g>
<g><path style="opacity:0.29" fill="#ed7a8b" d="M 112.5,20.5 C 112.586,21.4959 112.252,22.3292 111.5,23C 108.725,23.591 106.225,24.7577 104,26.5C 102.97,26.1639 102.47,25.4972 102.5,24.5C 105.624,22.726 108.958,21.3927 112.5,20.5 Z"/></g>
<g><path style="opacity:0.494" fill="#eb6d7f" d="M 267.5,18.5 C 271.833,20.5 276.167,22.5 280.5,24.5C 280.53,25.4972 280.03,26.1639 279,26.5C 275.485,24.6641 271.985,22.8307 268.5,21C 267.748,20.3292 267.414,19.4959 267.5,18.5 Z"/></g>
<g><path style="opacity:0.31" fill="#ef8696" d="M 281.5,24.5 C 282.5,25.1667 283.5,25.8333 284.5,26.5C 284.179,28.0481 283.179,28.7148 281.5,28.5C 281.5,27.1667 281.5,25.8333 281.5,24.5 Z"/></g>
<g><path style="opacity:0.337" fill="#e85d71" d="M 286.5,28.5 C 290.439,30.4462 294.106,32.7795 297.5,35.5C 297.265,36.0967 296.765,36.4301 296,36.5C 293.044,34.3543 289.878,32.6876 286.5,31.5C 286.5,30.5 286.5,29.5 286.5,28.5 Z"/></g>
<g><path style="opacity:0.443" fill="#ec7485" d="M 96.5,28.5 C 96.5,29.5 96.5,30.5 96.5,31.5C 94.0372,31.7811 91.8705,32.7811 90,34.5C 89.5357,33.9056 89.369,33.2389 89.5,32.5C 91.8372,31.1637 94.1705,29.8304 96.5,28.5 Z"/></g>
<g><path style="opacity:0.169" fill="#ee8190" d="M 87.5,33.5 C 87.6495,34.552 87.4828,35.552 87,36.5C 84.5753,37.6166 82.4086,39.1166 80.5,41C 79.184,41.5281 78.5173,41.0281 78.5,39.5C 81.5288,37.4581 84.5288,35.4581 87.5,33.5 Z"/></g>
<g><path style="opacity:0.286" fill="#ed7a8b" d="M 300.5,37.5 C 301.609,37.5569 302.609,37.8902 303.5,38.5C 303.179,40.0481 302.179,40.7148 300.5,40.5C 300.5,39.5 300.5,38.5 300.5,37.5 Z"/></g>
<g><path style="opacity:0.275" fill="#ed7e8f" d="M 305.5,40.5 C 307.5,42.1667 309.5,43.8333 311.5,45.5C 310.687,46.6527 309.687,46.6527 308.5,45.5C 306.679,44.2723 305.679,42.6056 305.5,40.5 Z"/></g>
<g><path style="opacity:0.22" fill="#ee8494" d="M 75.5,42.5 C 74.7615,45.6263 73.0949,46.9597 70.5,46.5C 72.1423,45.197 73.8089,43.8637 75.5,42.5 Z"/></g>
<g><path style="opacity:0.169" fill="#f29fab" d="M 314.5,48.5 C 316.98,49.9117 319.313,51.5784 321.5,53.5C 321.158,54.3382 320.492,54.6716 319.5,54.5C 317.086,53.0892 315.419,51.0892 314.5,48.5 Z"/></g>
<g><path style="opacity:0.22" fill="#f3a9b4" d="M 67.5,49.5 C 62.5752,55.0915 57.2418,60.4249 51.5,65.5C 55.8122,59.1878 61.1455,53.8545 67.5,49.5 Z"/></g>
<g><path style="opacity:0.369" fill="#ea6f82" d="M 321.5,53.5 C 323.833,56.5 326.5,59.1667 329.5,61.5C 329.5,62.1667 329.5,62.8333 329.5,63.5C 325.492,61.1543 322.159,58.1543 319.5,54.5C 320.492,54.6716 321.158,54.3382 321.5,53.5 Z"/></g>
<g><path style="opacity:0.533" fill="#f198a5" d="M 219.5,71.5 C 221.413,65.1744 223.746,59.0078 226.5,53C 226.167,52.6667 225.833,52.3333 225.5,52C 189.026,43.6367 154.026,48.3034 120.5,66C 114.613,70.1042 108.613,73.9376 102.5,77.5C 123.748,60.2538 148.081,50.0872 175.5,47C 192.794,45.4021 209.794,46.7354 226.5,51C 227.022,51.5613 227.355,52.228 227.5,53C 225.871,59.7559 223.204,65.9225 219.5,71.5 Z"/></g>
<g><path style="opacity:0.157" fill="#f3a9b4" d="M 329.5,61.5 C 331.878,63.8785 333.878,66.5451 335.5,69.5C 333.215,67.8818 331.215,65.8818 329.5,63.5C 329.5,62.8333 329.5,62.1667 329.5,61.5 Z"/></g>
<g><path style="opacity:0.106" fill="#f6c2cb" d="M 51.5,65.5 C 51.1667,66.1667 50.8333,66.8333 50.5,67.5C 49.6043,68.5063 48.9377,68.5063 48.5,67.5C 48.9731,66.0937 49.9731,65.427 51.5,65.5 Z"/></g>
<g><path style="opacity:0.639" fill="#e7556a" d="M 48.5,67.5 C 48.9377,68.5063 49.6043,68.5063 50.5,67.5C 49.2085,70.4006 47.2085,72.7339 44.5,74.5C 44.5,73.8333 44.5,73.1667 44.5,72.5C 45.4839,70.5201 46.8173,68.8534 48.5,67.5 Z"/></g>
<g><path style="opacity:0.373" fill="#f4abb6" d="M 283.5,79.5 C 278.721,76.2711 273.721,73.2711 268.5,70.5C 260.3,88.6916 252.467,107.358 245,126.5C 244.623,127.942 243.79,128.942 242.5,129.5C 242.5,128.5 242.5,127.5 242.5,126.5C 243.906,126.027 244.573,125.027 244.5,123.5C 252.157,105.639 259.657,87.6394 267,69.5C 268.507,68.4652 270.007,68.6319 271.5,70C 275.975,72.6499 279.975,75.8166 283.5,79.5 Z"/></g>
<g><path style="opacity:0.29" fill="#f5b9c3" d="M 219.5,71.5 C 219.771,73.3797 219.104,74.713 217.5,75.5C 217.66,73.847 218.326,72.5137 219.5,71.5 Z"/></g>
<g><path style="opacity:0.216" fill="#f3a8b2" d="M 44.5,72.5 C 44.5,73.1667 44.5,73.8333 44.5,74.5C 43.7377,76.2624 42.4044,77.2624 40.5,77.5C 41.604,75.6115 42.9373,73.9448 44.5,72.5 Z"/></g>
<g><path style="opacity:0.051" fill="#f3a8b3" d="M 338.5,72.5 C 340.587,73.5846 341.92,75.2512 342.5,77.5C 342.167,77.5 341.833,77.5 341.5,77.5C 339.273,76.5994 338.273,74.9328 338.5,72.5 Z"/></g>
<g><path style="opacity:0.196" fill="#f6c4cc" d="M 98.5,80.5 C 98.8333,81.8333 99.1667,81.8333 99.5,80.5C 100.959,80.4326 102.292,80.7659 103.5,81.5C 103.5,82.1667 103.167,82.5 102.5,82.5C 100.712,82.7852 99.0453,82.4519 97.5,81.5C 97.6236,80.8933 97.9569,80.56 98.5,80.5 Z"/></g>
<g><path style="opacity:0.301" fill="#ee8c9b" d="M 103.5,81.5 C 105.833,81.5 108.167,81.5 110.5,81.5C 110.5,82.1667 110.5,82.8333 110.5,83.5C 107.615,83.8064 104.948,83.4731 102.5,82.5C 103.167,82.5 103.5,82.1667 103.5,81.5 Z"/></g>
<g><path style="opacity:0.306" fill="#f0929f" d="M 40.5,77.5 C 40.6567,78.8734 40.49,80.2068 40,81.5C 37.91,84.4276 35.41,86.7609 32.5,88.5C 35.1985,84.8098 37.8652,81.1431 40.5,77.5 Z"/></g>
<g><path style="opacity:0.204" fill="#f6c2cb" d="M 110.5,81.5 C 113.01,81.0535 115.01,81.7202 116.5,83.5C 115.833,83.5 115.167,83.5 114.5,83.5C 113.167,83.5 111.833,83.5 110.5,83.5C 110.5,82.8333 110.5,82.1667 110.5,81.5 Z"/></g>
<g><path style="opacity:0.129" fill="#f5b1ba" d="M 217.5,76.5 C 215.379,82.8596 213.045,89.1929 210.5,95.5C 209.833,95.5 209.167,95.5 208.5,95.5C 210.737,88.698 213.737,82.3646 217.5,76.5 Z"/></g>
<g><path style="opacity:0.004" fill="#f4aab4" d="M 283.5,79.5 C 286.386,80.5964 288.386,82.5964 289.5,85.5C 286.614,84.4036 284.614,82.4036 283.5,79.5 Z"/></g>
<g><path style="opacity:0.035" fill="#ef8998" d="M 341.5,77.5 C 341.833,77.5 342.167,77.5 342.5,77.5C 343.683,78.5045 345.016,79.3378 346.5,80C 346.167,80.3333 345.833,80.6667 345.5,81C 346.971,82.5833 347.971,84.4166 348.5,86.5C 345.075,84.4014 342.741,81.4014 341.5,77.5 Z"/></g>
<g><path style="opacity:0.047" fill="#f3acb7" d="M 348.5,86.5 C 350.048,86.8212 350.715,87.8212 350.5,89.5C 348.952,89.1788 348.285,88.1788 348.5,86.5 Z"/></g>
<g><path style="opacity:0.173" fill="#f19aa8" d="M 289.5,85.5 C 292.453,86.7872 294.786,88.7872 296.5,91.5C 293.599,90.2085 291.266,88.2085 289.5,85.5 Z"/></g>
<g><path style="opacity:0.894" fill="#f08a96" d="M 296.5,91.5 C 299.908,92.5778 301.908,94.9111 302.5,98.5C 300.291,96.4649 298.291,94.1316 296.5,91.5 Z"/></g>
<g><path style="opacity:0.149" fill="#f098a6" d="M 32.5,89.5 C 32.5979,91.5529 31.9313,93.2196 30.5,94.5C 29.8999,95.9002 28.8999,96.9002 27.5,97.5C 28.4538,94.2485 30.1204,91.5819 32.5,89.5 Z"/></g>
<g><path style="opacity:0.718" fill="#f197a3" d="M 114.5,83.5 C 115.167,83.5 115.833,83.5 116.5,83.5C 136.793,84.5049 156.46,88.1715 175.5,94.5C 175.265,95.0967 174.765,95.4301 174,95.5C 154.359,89.8805 134.526,85.8805 114.5,83.5 Z"/></g>
<g><path style="opacity:0.706" fill="#f196a3" d="M 176.5,94.5 C 185.42,97.3657 194.42,100.366 203.5,103.5C 204.442,103.392 205.275,103.059 206,102.5C 206.847,100.146 207.68,97.8123 208.5,95.5C 209.167,95.5 209.833,95.5 210.5,95.5C 209.243,98.096 208.076,100.763 207,103.5C 206.261,104.574 205.261,105.241 204,105.5C 195.347,102.06 186.514,99.2266 177.5,97C 176.748,96.3292 176.414,95.4959 176.5,94.5 Z"/></g>
<g><path style="opacity:0.388" fill="#e64f65" d="M 30.5,94.5 C 29.6834,97.9805 28.0168,100.981 25.5,103.5C 25.5,102.833 25.5,102.167 25.5,101.5C 25.5271,99.8007 26.1938,98.4674 27.5,97.5C 28.8999,96.9002 29.8999,95.9002 30.5,94.5 Z"/></g>
<g><path style="opacity:0.067" fill="#f19daa" d="M 302.5,98.5 C 307.936,102.682 311.936,108.016 314.5,114.5C 310.147,109.473 306.147,104.14 302.5,98.5 Z"/></g>
<g><path style="opacity:0.18" fill="#f2aab6" d="M 25.5,101.5 C 25.5,102.167 25.5,102.833 25.5,103.5C 23.7767,106.34 22.4433,109.34 21.5,112.5C 20.8333,112.5 20.1667,112.5 19.5,112.5C 20.2478,107.993 22.2478,104.327 25.5,101.5 Z"/></g>
<g><path style="opacity:0.012" fill="#f4abb5" d="M 314.5,114.5 C 316.408,115.486 317.408,117.152 317.5,119.5C 315.953,118.232 314.953,116.565 314.5,114.5 Z"/></g>
<g><path style="opacity:0.251" fill="#ed7f8f" d="M 19.5,112.5 C 20.1667,112.5 20.8333,112.5 21.5,112.5C 19.2522,116.571 17.5856,120.905 16.5,125.5C 15.5,125.5 14.5,125.5 13.5,125.5C 15.0573,120.881 17.0573,116.547 19.5,112.5 Z"/></g>
<g><path style="opacity:0.043" fill="#ef909e" d="M 350.5,89.5 C 352.836,91.0038 354.669,93.0038 356,95.5C 358.889,100.609 361.222,105.943 363,111.5C 363.333,111.167 363.667,110.833 364,110.5C 365.099,115.584 367.099,120.251 370,124.5C 372.153,131.118 373.986,137.785 375.5,144.5C 374.833,144.5 374.167,144.5 373.5,144.5C 370.779,134.274 367.445,124.274 363.5,114.5C 359.284,106.024 354.951,97.6906 350.5,89.5 Z"/></g>
<g><path style="opacity:0.753" fill="#ec7385" d="M 244.5,123.5 C 244.573,125.027 243.906,126.027 242.5,126.5C 242.427,124.973 243.094,123.973 244.5,123.5 Z"/></g>
<g><path style="opacity:0.1" fill="#f2a0ac" d="M 135.5,130.5 C 122.256,128.417 108.922,127.083 95.5,126.5C 83.6497,126.26 72.3164,128.426 61.5,133C 57.6034,136.087 56.6034,139.92 58.5,144.5C 55.1951,139.182 56.1951,134.682 61.5,131C 72.3589,126.22 83.8589,124.053 96,124.5C 107.211,125.246 118.377,126.413 129.5,128C 131.611,128.845 133.611,129.678 135.5,130.5 Z"/></g>
<g><path style="opacity:0.447" fill="#f194a1" d="M 136.5,130.5 C 136.735,129.903 137.235,129.57 138,129.5C 143.512,130.586 149.012,131.753 154.5,133C 157.069,133.898 159.402,135.065 161.5,136.5C 153.146,134.497 144.813,132.497 136.5,130.5 Z"/></g>
<g><path style="opacity:0.063" fill="#f29ba8" d="M 278.5,139.5 C 271.457,135.971 264.29,132.637 257,129.5C 253.966,133.573 251.466,137.906 249.5,142.5C 250.698,137.762 252.198,133.095 254,128.5C 254.725,127.941 255.558,127.608 256.5,127.5C 264.499,130.495 271.832,134.495 278.5,139.5 Z"/></g>
<g><path style="opacity:0.604" fill="#eb6c7e" d="M 13.5,126.5 C 14.5034,128.487 14.5034,130.654 13.5,133C 10.4718,140.778 8.13848,148.611 6.5,156.5C 5.83333,156.5 5.16667,156.5 4.5,156.5C 4.5,155.5 4.5,154.5 4.5,153.5C 5.5,153.5 6.5,153.5 7.5,153.5C 7.78448,151.585 7.45115,149.919 6.5,148.5C 6.61432,144.41 7.78098,140.743 10,137.5C 10.4842,133.55 11.6509,129.883 13.5,126.5 Z"/></g>
<g><path style="opacity:0.055" fill="#f3a6b1" d="M 163.5,136.5 C 166.815,137.329 170.148,138.162 173.5,139C 175.584,139.697 177.251,140.864 178.5,142.5C 174.229,141.182 169.895,140.015 165.5,139C 164.244,138.583 163.577,137.75 163.5,136.5 Z"/></g>
<g><path style="opacity:0.247" fill="#f3a1ad" d="M 241.5,131.5 C 240.345,135.797 238.679,139.797 236.5,143.5C 236.636,138.733 238.303,134.733 241.5,131.5 Z"/></g>
<g><path style="opacity:0.047" fill="#f2a8b3" d="M 278.5,139.5 C 280.027,139.427 281.027,140.094 281.5,141.5C 279.973,141.573 278.973,140.906 278.5,139.5 Z"/></g>
<g><path style="opacity:0.335" fill="#f4aeb8" d="M 179.5,142.5 C 182.905,141.922 185.905,143.089 188.5,146C 185.287,154.512 181.621,162.679 177.5,170.5C 179.964,161.933 183.297,153.767 187.5,146C 184.924,144.544 182.258,143.377 179.5,142.5 Z"/></g>
<g><path style="opacity:0.631" fill="#f19eab" d="M 281.5,141.5 C 288.021,144.053 293.687,147.72 298.5,152.5C 292.541,149.193 286.875,145.527 281.5,141.5 Z"/></g>
<g><path style="opacity:0.224" fill="#f4acb7" d="M 58.5,144.5 C 59.5375,145.93 60.2041,147.597 60.5,149.5C 58.7868,148.365 58.1201,146.698 58.5,144.5 Z"/></g>
<g><path style="opacity:0.09" fill="#f5aeb8" d="M 249.5,142.5 C 248.996,146.5 247.663,150.166 245.5,153.5C 245.167,153.5 244.833,153.5 244.5,153.5C 245.816,149.566 247.483,145.899 249.5,142.5 Z"/></g>
<g><path style="opacity:0.145" fill="#f4b7c2" d="M 60.5,149.5 C 62.1042,150.287 62.7709,151.62 62.5,153.5C 61.3263,152.486 60.6596,151.153 60.5,149.5 Z"/></g>
<g><path style="opacity:0.192" fill="#f4aab5" d="M 236.5,143.5 C 234.349,151.425 231.349,158.425 227.5,164.5C 229.327,159.204 231.161,153.871 233,148.5C 233.902,146.569 235.069,144.903 236.5,143.5 Z"/></g>
<g><path style="opacity:0.075" fill="#f095a3" d="M 376.5,147.5 C 377.038,149.117 377.371,150.784 377.5,152.5C 376.351,152.209 375.684,151.376 375.5,150C 375.528,148.93 375.861,148.097 376.5,147.5 Z"/></g>
<g><path style="opacity:0.125" fill="#f29fab" d="M 6.5,148.5 C 7.45115,149.919 7.78448,151.585 7.5,153.5C 6.5,153.5 5.5,153.5 4.5,153.5C 5.16667,151.833 5.83333,150.167 6.5,148.5 Z"/></g>
<g><path style="opacity:0.937" fill="#e54a61" d="M 373.5,144.5 C 374.167,144.5 374.833,144.5 375.5,144.5C 376.404,145.209 376.737,146.209 376.5,147.5C 375.861,148.097 375.528,148.93 375.5,150C 375.684,151.376 376.351,152.209 377.5,152.5C 377.5,153.167 377.5,153.833 377.5,154.5C 377.167,154.5 376.833,154.5 376.5,154.5C 374.69,151.628 373.69,148.295 373.5,144.5 Z"/></g>
<g><path style="opacity:0.992" fill="#ea6372" d="M 244.5,153.5 C 244.833,153.5 245.167,153.5 245.5,153.5C 245.88,155.698 245.213,157.365 243.5,158.5C 243.5,157.833 243.5,157.167 243.5,156.5C 243.557,155.391 243.89,154.391 244.5,153.5 Z"/></g>
<g><path style="opacity:0.318" fill="#f3a5b1" d="M 317.5,119.5 C 318.885,120.574 320.051,121.907 321,123.5C 329.684,139.681 335.184,157.014 337.5,175.5C 337.784,177.415 337.451,179.081 336.5,180.5C 334.936,169.722 332.769,159.055 330,148.5C 325.928,138.779 321.761,129.113 317.5,119.5 Z"/></g>
<g><path style="opacity:0.678" fill="#f29ba8" d="M 300.5,153.5 C 305.68,157.171 311.014,160.671 316.5,164C 317.252,164.671 317.586,165.504 317.5,166.5C 311.186,162.862 305.519,158.529 300.5,153.5 Z"/></g>
<g><path style="opacity:0.059" fill="#ee8493" d="M 376.5,154.5 C 376.833,154.5 377.167,154.5 377.5,154.5C 378.63,156.315 379.296,158.315 379.5,160.5C 378.5,160.5 377.5,160.5 376.5,160.5C 376.5,158.5 376.5,156.5 376.5,154.5 Z"/></g>
<g><path style="opacity:0.076" fill="#f3a9b4" d="M 63.5,155.5 C 71.7993,165.134 80.466,174.468 89.5,183.5C 79.0806,175.749 70.414,166.416 63.5,155.5 Z"/></g>
<g><path style="opacity:0.361" fill="#f0909f" d="M 4.5,156.5 C 5.16667,156.5 5.83333,156.5 6.5,156.5C 6.40505,158.786 5.73838,160.786 4.5,162.5C 4.5,160.5 4.5,158.5 4.5,156.5 Z"/></g>
<g><path style="opacity:0.19" fill="#f2a0ae" d="M 379.5,163.5 C 379.5,164.833 379.5,166.167 379.5,167.5C 380.5,167.5 381.5,167.5 382.5,167.5C 382.5,169.167 382.5,170.833 382.5,172.5C 381.178,172.67 380.011,172.337 379,171.5C 378.199,168.633 378.366,165.966 379.5,163.5 Z"/></g>
<g><path style="opacity:0.122" fill="#f196a4" d="M 317.5,166.5 C 320.427,167.757 322.761,169.757 324.5,172.5C 321.573,171.243 319.239,169.243 317.5,166.5 Z"/></g>
<g><path style="opacity:0.176" fill="#f2a0ac" d="M 243.5,156.5 C 243.5,157.167 243.5,157.833 243.5,158.5C 242.214,160.852 241.214,163.352 240.5,166C 245.57,169.524 250.57,173.024 255.5,176.5C 249.964,173.931 244.464,171.264 239,168.5C 239.036,164.89 239.869,161.39 241.5,158C 241.836,156.97 242.503,156.47 243.5,156.5 Z"/></g>
<g><path style="opacity:0.129" fill="#f3a7b2" d="M 227.5,164.5 C 224.282,173.315 220.948,182.148 217.5,191C 217.164,192.03 216.497,192.53 215.5,192.5C 218.196,182.352 222.196,173.018 227.5,164.5 Z"/></g>
<g><path style="opacity:0.084" fill="#f1a1ad" d="M 324.5,172.5 C 329.089,174.124 332.423,177.124 334.5,181.5C 330.544,179.212 327.211,176.212 324.5,172.5 Z"/></g>
<g><path style="opacity:0.141" fill="#f5b0ba" d="M 177.5,170.5 C 175.432,175.661 173.599,180.994 172,186.5C 169.391,191.525 166.891,196.525 164.5,201.5C 167.529,190.463 171.862,180.13 177.5,170.5 Z"/></g>
<g><path style="opacity:0.792" fill="#ec7485" d="M 337.5,175.5 C 338.479,178.625 338.813,181.958 338.5,185.5C 335.858,185.512 334.525,184.179 334.5,181.5C 335.925,183.031 336.591,182.698 336.5,180.5C 337.451,179.081 337.784,177.415 337.5,175.5 Z"/></g>
<g><path style="opacity:0.179" fill="#f5bcc5" d="M 382.5,179.5 C 382.5,188.833 382.5,198.167 382.5,207.5C 381.173,203.217 380.507,198.551 380.5,193.5C 380.507,188.449 381.173,183.783 382.5,179.5 Z"/></g>
<g><path style="opacity:0.212" fill="#f098a5" d="M 258.5,178.5 C 265.686,181.254 272.019,185.254 277.5,190.5C 271.789,186.822 265.789,183.489 259.5,180.5C 258.702,180.043 258.369,179.376 258.5,178.5 Z"/></g>
<g><path style="opacity:0.475" fill="#f19aa7" d="M 89.5,183.5 C 95.5961,186.541 100.929,190.541 105.5,195.5C 99.3128,192.647 93.9795,188.647 89.5,183.5 Z"/></g>
<g><path style="opacity:0.251" fill="#f3a9b4" d="M 277.5,190.5 C 282.746,193.411 287.413,197.078 291.5,201.5C 286.254,198.589 281.587,194.922 277.5,190.5 Z"/></g>
<g><path style="opacity:0.294" fill="#f29ca9" d="M 105.5,195.5 C 110.543,198.015 115.21,201.015 119.5,204.5C 119.565,204.938 119.399,205.272 119,205.5C 115.584,203.208 112.084,201.041 108.5,199C 106.937,198.241 105.937,197.074 105.5,195.5 Z"/></g>
<g><path style="opacity:0.357" fill="#f4aab5" d="M 164.5,201.5 C 163.917,204.947 162.584,207.947 160.5,210.5C 160.389,209.883 160.056,209.383 159.5,209C 161.262,206.508 162.929,204.008 164.5,201.5 Z"/></g>
<g><path style="opacity:0.29" fill="#f3aab4" d="M 291.5,201.5 C 295.086,202.75 297.752,205.084 299.5,208.5C 296.557,206.562 293.89,204.229 291.5,201.5 Z"/></g>
<g><path style="opacity:0.02" fill="#f3afba" d="M 47.5,203.5 C 50.1667,205.5 52.5,207.833 54.5,210.5C 51.1667,209.167 48.8333,206.833 47.5,203.5 Z"/></g>
<g><path style="opacity:0.314" fill="#f3a4b0" d="M 215.5,192.5 C 209.652,208.546 203.319,224.379 196.5,240C 196.905,240.945 197.572,241.612 198.5,242C 202.288,242.874 205.954,244.041 209.5,245.5C 209.265,246.097 208.765,246.43 208,246.5C 204.106,245.536 200.273,244.369 196.5,243C 195.426,242.261 194.759,241.261 194.5,240C 200.821,223.852 207.821,208.019 215.5,192.5 Z"/></g>
<g><path style="opacity:0.655" fill="#f199a6" d="M 54.5,210.5 C 56.7488,211.08 58.4154,212.413 59.5,214.5C 57.2512,213.92 55.5846,212.587 54.5,210.5 Z"/></g>
<g><path style="opacity:0.12" fill="#e75970" d="M 382.5,210.5 C 382.5,211.833 382.5,213.167 382.5,214.5C 381.167,214.5 379.833,214.5 378.5,214.5C 378.5,213.167 378.5,211.833 378.5,210.5C 379.833,210.5 381.167,210.5 382.5,210.5 Z"/></g>
<g><path style="opacity:0.108" fill="#f3aab5" d="M 160.5,210.5 C 159.021,214.802 157.521,219.135 156,223.5C 154.085,224.916 152.585,224.582 151.5,222.5C 152.496,222.414 153.329,222.748 154,223.5C 155.639,219.722 157.139,215.889 158.5,212C 158.836,210.97 159.503,210.47 160.5,210.5 Z"/></g>
<g><path style="opacity:0.402" fill="#f29ca8" d="M 47.5,203.5 C 46.8614,204.097 46.528,204.93 46.5,206C 47.3725,211.147 48.0392,216.314 48.5,221.5C 45.7971,215.477 45.1304,209.143 46.5,202.5C 47.1067,202.624 47.44,202.957 47.5,203.5 Z"/></g>
<g><path style="opacity:0.639" fill="#f29daa" d="M 120.5,204.5 C 123.286,206.113 125.953,207.946 128.5,210C 136.58,213.701 144.247,217.868 151.5,222.5C 140.96,218.48 130.96,213.314 121.5,207C 120.748,206.329 120.414,205.496 120.5,204.5 Z"/></g>
<g><path style="opacity:0.537" fill="#f39ca8" d="M 59.5,214.5 C 62.0892,215.419 64.0892,217.086 65.5,219.5C 62.9108,218.581 60.9108,216.914 59.5,214.5 Z"/></g>
<g><path style="opacity:0.239" fill="#f099a7" d="M 378.5,214.5 C 379.833,214.5 381.167,214.5 382.5,214.5C 380.639,216.745 379.639,219.412 379.5,222.5C 378.527,220.052 378.194,217.385 378.5,214.5 Z"/></g>
<g><path style="opacity:0.012" fill="#f3a8b3" d="M 65.5,219.5 C 71.2295,223.025 76.5628,227.025 81.5,231.5C 76.2185,228.855 71.2185,225.688 66.5,222C 65.7476,221.329 65.4142,220.496 65.5,219.5 Z"/></g>
<g><path style="opacity:0.183" fill="#e96476" d="M 4.5,221.5 C 5.50604,224.489 6.67271,227.489 8,230.5C 8.33858,233.88 8.83858,237.213 9.5,240.5C 8.83333,240.5 8.16667,240.5 7.5,240.5C 6.59603,239.791 6.26269,238.791 6.5,237.5C 7.43448,236.432 7.76781,235.099 7.5,233.5C 6.5,233.5 5.5,233.5 4.5,233.5C 4.5,229.5 4.5,225.5 4.5,221.5 Z"/></g>
<g><path style="opacity:0.165" fill="#f5bcc4" d="M 4.5,233.5 C 5.5,233.5 6.5,233.5 7.5,233.5C 7.76781,235.099 7.43448,236.432 6.5,237.5C 6.26714,235.938 5.60048,234.605 4.5,233.5 Z"/></g>
<g><path style="opacity:0.061" fill="#f5b8c0" d="M 48.5,223.5 C 49.3149,224.429 50.1482,225.429 51,226.5C 52.865,234.631 55.0317,242.631 57.5,250.5C 52.9225,242.107 49.9225,233.107 48.5,223.5 Z"/></g>
<g><path style="opacity:0.486" fill="#eb6f81" d="M 379.5,225.5 C 377.983,228.587 377.316,231.921 377.5,235.5C 376.414,235.62 375.747,236.287 375.5,237.5C 375.543,238.416 375.876,239.083 376.5,239.5C 376.737,240.791 376.404,241.791 375.5,242.5C 374.833,242.5 374.167,242.5 373.5,242.5C 374.616,237.174 375.783,231.84 377,226.5C 377.671,225.748 378.504,225.414 379.5,225.5 Z"/></g>
<g><path style="opacity:0.122" fill="#f4b6bf" d="M 377.5,235.5 C 376.766,236.708 376.433,238.041 376.5,239.5C 375.876,239.083 375.543,238.416 375.5,237.5C 375.747,236.287 376.414,235.62 377.5,235.5 Z"/></g>
<g><path style="opacity:0.125" fill="#f3a2ae" d="M 81.5,231.5 C 89.0244,235.425 96.0244,240.092 102.5,245.5C 97.306,242.489 91.9727,239.656 86.5,237C 84.6266,235.296 82.9599,233.463 81.5,231.5 Z"/></g>
<g><path style="opacity:0.141" fill="#f4afba" d="M 373.5,242.5 C 374.167,242.5 374.833,242.5 375.5,242.5C 374.89,243.391 374.557,244.391 374.5,245.5C 373.662,245.158 373.328,244.492 373.5,243.5C 373.5,243.167 373.5,242.833 373.5,242.5 Z"/></g>
<g><path style="opacity:0.025" fill="#ef8898" d="M 7.5,240.5 C 8.16667,240.5 8.83333,240.5 9.5,240.5C 9.39622,243.09 10.0629,245.423 11.5,247.5C 11.4573,248.416 11.1239,249.083 10.5,249.5C 7.92376,247.112 6.92376,244.112 7.5,240.5 Z"/></g>
<g><path style="opacity:0.141" fill="#f4abb6" d="M 299.5,208.5 C 311.467,217.311 320.3,228.644 326,242.5C 326.667,245.167 326.667,247.833 326,250.5C 325.617,251.056 325.117,251.389 324.5,251.5C 324.959,244.709 323.459,238.376 320,232.5C 313.396,224.283 306.562,216.283 299.5,208.5 Z"/></g>
<g><path style="opacity:0.651" fill="#ee8393" d="M 210.5,245.5 C 211.609,245.557 212.609,245.89 213.5,246.5C 213.5,247.167 213.5,247.833 213.5,248.5C 212.5,248.5 211.5,248.5 210.5,248.5C 210.5,247.5 210.5,246.5 210.5,245.5 Z"/></g>
<g><path style="opacity:0.004" fill="#f6bbc5" d="M 213.5,246.5 C 216.034,246.259 217.7,247.259 218.5,249.5C 216.784,249.371 215.117,249.038 213.5,248.5C 213.5,247.833 213.5,247.167 213.5,246.5 Z"/></g>
<g><path style="opacity:0.149" fill="#ec7687" d="M 373.5,243.5 C 373.328,244.492 373.662,245.158 374.5,245.5C 374.037,248.221 373.371,250.888 372.5,253.5C 371.167,254.833 369.833,256.167 368.5,257.5C 370.418,252.883 372.084,248.217 373.5,243.5 Z"/></g>
<g><path style="opacity:0.447" fill="#f19ba8" d="M 219.5,249.5 C 236.244,253.902 253.244,256.902 270.5,258.5C 271.833,259.167 273.167,259.833 274.5,260.5C 265.958,260.797 257.625,259.964 249.5,258C 239.804,255.998 230.138,253.665 220.5,251C 219.944,250.617 219.611,250.117 219.5,249.5 Z"/></g>
<g><path style="opacity:0.278" fill="#f2a0ac" d="M 57.5,250.5 C 59.6837,254.369 61.6837,258.369 63.5,262.5C 60.1882,259.278 58.1882,255.278 57.5,250.5 Z"/></g>
<g><path style="opacity:0.573" fill="#f199a6" d="M 324.5,251.5 C 323.781,253.888 322.115,255.388 319.5,256C 314.037,258.282 308.371,259.782 302.5,260.5C 301.5,260.5 300.5,260.5 299.5,260.5C 300.167,259.833 300.833,259.167 301.5,258.5C 309.892,258.368 317.559,256.035 324.5,251.5 Z"/></g>
<g><path style="opacity:0.224" fill="#ef8a99" d="M 10.5,251.5 C 14.7631,258.237 18.0965,265.571 20.5,273.5C 19.8333,273.5 19.1667,273.5 18.5,273.5C 15.8319,266.164 13.1652,258.831 10.5,251.5 Z"/></g>
<g><path style="opacity:0.137" fill="#f19eaa" d="M 372.5,253.5 C 371.913,257.43 370.58,261.097 368.5,264.5C 368.135,262.412 368.135,260.079 368.5,257.5C 369.833,256.167 371.167,254.833 372.5,253.5 Z"/></g>
<g><path style="opacity:0.348" fill="#f4aeb8" d="M 270.5,258.5 C 280.845,259.776 291.178,259.776 301.5,258.5C 300.833,259.167 300.167,259.833 299.5,260.5C 293.848,261.032 288.181,261.365 282.5,261.5C 279.615,261.806 276.948,261.473 274.5,260.5C 273.167,259.833 271.833,259.167 270.5,258.5 Z"/></g>
<g><path style="opacity:1" fill="#e4435c" d="M 299.5,260.5 C 300.5,260.5 301.5,260.5 302.5,260.5C 298.966,262.048 295.133,262.714 291,262.5C 287.979,262.498 285.146,262.164 282.5,261.5C 288.181,261.365 293.848,261.032 299.5,260.5 Z"/></g>
<g><path style="opacity:0.075" fill="#f29ca9" d="M 104.5,246.5 C 114.222,251.573 123.889,256.74 133.5,262C 142.713,266.302 152.046,270.302 161.5,274C 162.252,274.671 162.586,275.504 162.5,276.5C 145.228,269.014 128.228,260.847 111.5,252C 108.734,250.629 106.401,248.796 104.5,246.5 Z"/></g>
<g><path style="opacity:0.012" fill="#f4b1bb" d="M 367.5,266.5 C 367.573,268.027 366.906,269.027 365.5,269.5C 365.285,267.821 365.952,266.821 367.5,266.5 Z"/></g>
<g><path style="opacity:0.2" fill="#f4a9b4" d="M 63.5,262.5 C 67.6654,268.158 71.3321,274.158 74.5,280.5C 69.3131,275.465 65.6464,269.465 63.5,262.5 Z"/></g>
<g><path style="opacity:0.106" fill="#ee8392" d="M 368.5,257.5 C 368.135,260.079 368.135,262.412 368.5,264.5C 368.672,265.492 368.338,266.158 367.5,266.5C 365.952,266.821 365.285,267.821 365.5,269.5C 362.773,276.679 359.606,283.679 356,290.5C 353.97,293.681 351.803,296.681 349.5,299.5C 349.343,298.127 349.51,296.793 350,295.5C 357.841,283.538 364.007,270.871 368.5,257.5 Z"/></g>
<g><path style="opacity:0.031" fill="#f3adb9" d="M 18.5,273.5 C 19.1667,273.5 19.8333,273.5 20.5,273.5C 23.2023,277.912 25.5356,282.579 27.5,287.5C 23.8147,283.44 20.8147,278.773 18.5,273.5 Z"/></g>
<g><path style="opacity:0.612" fill="#f195a2" d="M 136.5,276.5 C 138.153,276.66 139.486,277.326 140.5,278.5C 138.517,278.843 137.183,278.176 136.5,276.5 Z"/></g>
<g><path style="opacity:0.145" fill="#f4b3bd" d="M 135.5,276.5 C 134.325,276.281 133.325,276.614 132.5,277.5C 129.71,285.257 126.377,292.59 122.5,299.5C 125.363,291.416 128.53,283.416 132,275.5C 133.756,274.015 134.923,274.348 135.5,276.5 Z"/></g>
<g><path style="opacity:0.584" fill="#f29daa" d="M 186.5,284.5 C 178.303,282.992 170.637,280.325 163.5,276.5C 171.372,277.905 179.039,280.571 186.5,284.5 Z"/></g>
<g><path style="opacity:0.478" fill="#f3a7b2" d="M 74.5,280.5 C 76.2624,281.262 77.2624,282.596 77.5,284.5C 75.7376,283.738 74.7376,282.404 74.5,280.5 Z"/></g>
<g><path style="opacity:0.008" fill="#f7cad1" d="M 77.5,284.5 C 78.8333,284.5 79.5,285.167 79.5,286.5C 78.5,286.167 77.8333,285.5 77.5,284.5 Z"/></g>
<g><path style="opacity:0.769" fill="#f195a2" d="M 186.5,284.5 C 190.044,284.132 193.044,285.132 195.5,287.5C 192.145,287.31 189.145,286.31 186.5,284.5 Z"/></g>
<g><path style="opacity:0.129" fill="#f3a9b4" d="M 79.5,286.5 C 81.9971,287.129 83.3304,288.796 83.5,291.5C 81.4131,290.415 80.0798,288.749 79.5,286.5 Z"/></g>
<g><path style="opacity:0.361" fill="#f29fab" d="M 140.5,278.5 C 149.703,282.265 159.036,285.765 168.5,289C 172.812,291.566 173.479,294.732 170.5,298.5C 170.519,296.94 170.852,295.44 171.5,294C 170.728,292.779 169.728,291.779 168.5,291C 161.402,288.48 154.402,285.814 147.5,283C 144.686,281.946 142.353,280.446 140.5,278.5 Z"/></g>
<g><path style="opacity:0.008" fill="#f4b0bc" d="M 195.5,287.5 C 199.182,287.711 202.182,289.044 204.5,291.5C 200.934,291.208 197.934,289.874 195.5,287.5 Z"/></g>
<g><path style="opacity:0.051" fill="#f2a3af" d="M 205.5,291.5 C 207.327,290.418 209.327,290.418 211.5,291.5C 215.296,291.936 218.63,293.269 221.5,295.5C 215.987,294.788 210.654,293.455 205.5,291.5 Z"/></g>
<g><path style="opacity:0.08" fill="#f2a2ae" d="M 27.5,288.5 C 30.0582,290.434 31.3915,293.101 31.5,296.5C 29.7585,294.076 28.4252,291.41 27.5,288.5 Z"/></g>
<g><path style="opacity:0.604" fill="#f199a7" d="M 221.5,295.5 C 228.867,295.669 235.867,297.002 242.5,299.5C 235.294,298.69 228.294,297.357 221.5,295.5 Z"/></g>
<g><path style="opacity:0.112" fill="#ef8a99" d="M 32.5,297.5 C 33.675,297.281 34.675,297.614 35.5,298.5C 37.3435,300.982 38.6769,303.649 39.5,306.5C 36.4646,304.121 34.1313,301.121 32.5,297.5 Z"/></g>
<g><path style="opacity:0.882" fill="#f0919e" d="M 247.5,300.5 C 254.363,300.638 261.03,301.304 267.5,302.5C 266.167,302.5 264.833,302.5 263.5,302.5C 257.916,302.745 252.583,302.078 247.5,300.5 Z"/></g>
<g><path style="opacity:0.118" fill="#f195a2" d="M 83.5,291.5 C 89.823,296.157 95.4896,301.49 100.5,307.5C 96.728,304.906 93.0613,302.073 89.5,299C 86.8823,296.894 84.8823,294.394 83.5,291.5 Z"/></g>
<g><path style="opacity:0.014" fill="#f5b7c1" d="M 263.5,302.5 C 264.833,302.5 266.167,302.5 267.5,302.5C 273.861,302.861 280.194,303.528 286.5,304.5C 286.376,305.107 286.043,305.44 285.5,305.5C 284.794,304.443 284.461,304.776 284.5,306.5C 284.167,306.5 283.833,306.5 283.5,306.5C 277.347,305.413 271.014,304.58 264.5,304C 263.944,303.617 263.611,303.117 263.5,302.5 Z"/></g>
<g><path style="opacity:0.235" fill="#f2a4b0" d="M 122.5,300.5 C 122.241,303.272 121.241,305.605 119.5,307.5C 119.389,306.883 119.056,306.383 118.5,306C 119.9,304.144 121.233,302.311 122.5,300.5 Z"/></g>
<g><path style="opacity:0.11" fill="#f3a1ad" d="M 348.5,300.5 C 346.646,304.221 344.313,307.554 341.5,310.5C 341.5,309.833 341.5,309.167 341.5,308.5C 342.929,304.929 345.263,302.262 348.5,300.5 Z"/></g>
<g><path style="opacity:0.145" fill="#f19aa9" d="M 39.5,306.5 C 41.2644,307.326 42.5977,308.659 43.5,310.5C 43.5,311.167 43.5,311.833 43.5,312.5C 41.7819,310.777 40.4486,308.777 39.5,306.5 Z"/></g>
<g><path style="opacity:0.235" fill="#ea667a" d="M 341.5,308.5 C 341.5,309.167 341.5,309.833 341.5,310.5C 340.833,311.833 339.833,312.833 338.5,313.5C 338.273,311.067 339.273,309.401 341.5,308.5 Z"/></g>
<g><path style="opacity:0.204" fill="#f5b2bc" d="M 170.5,298.5 C 168.219,307.047 164.886,315.047 160.5,322.5C 161.06,320.199 161.56,317.866 162,315.5C 164.759,309.674 167.592,304.007 170.5,298.5 Z"/></g>
<g><path style="opacity:0.188" fill="#f2a0ac" d="M 100.5,307.5 C 105.139,310.155 109.806,312.821 114.5,315.5C 115.378,312.998 116.712,310.832 118.5,309C 117.288,307.893 117.621,307.393 119.5,307.5C 118.451,310.47 117.284,313.47 116,316.5C 115.439,317.022 114.772,317.355 114,317.5C 108.757,314.983 104.257,311.65 100.5,307.5 Z"/></g>
<g><path style="opacity:0.333" fill="#e85e73" d="M 43.5,310.5 C 45.3947,311.973 47.0613,313.64 48.5,315.5C 47.8333,315.5 47.1667,315.5 46.5,315.5C 45.1667,314.833 44.1667,313.833 43.5,312.5C 43.5,311.833 43.5,311.167 43.5,310.5 Z"/></g>
<g><path style="opacity:0.596" fill="#f196a3" d="M 283.5,306.5 C 283.833,306.5 284.167,306.5 284.5,306.5C 282.763,308.55 280.763,310.383 278.5,312C 273.445,314.857 268.445,317.691 263.5,320.5C 269.846,315.506 276.512,310.839 283.5,306.5 Z"/></g>
<g><path style="opacity:0.055" fill="#f3adb8" d="M 46.5,315.5 C 47.1667,315.5 47.8333,315.5 48.5,315.5C 50.7935,319.127 53.4602,322.461 56.5,325.5C 56.5,326.167 56.5,326.833 56.5,327.5C 52.4729,324.134 49.1396,320.134 46.5,315.5 Z"/></g>
<g><path style="opacity:0.054" fill="#ef8c9b" d="M 338.5,313.5 C 336.912,317.155 334.246,320.489 330.5,323.5C 330.557,322.391 330.89,321.391 331.5,320.5C 333.183,317.423 335.516,315.09 338.5,313.5 Z"/></g>
<g><path style="opacity:0.154" fill="#e65068" d="M 331.5,320.5 C 330.89,321.391 330.557,322.391 330.5,323.5C 327.833,326.833 324.833,329.833 321.5,332.5C 321.158,331.662 320.492,331.328 319.5,331.5C 323.22,327.443 327.22,323.776 331.5,320.5 Z"/></g>
<g><path style="opacity:0.086" fill="#eb7487" d="M 56.5,325.5 C 58.1667,326.5 59.5,327.833 60.5,329.5C 59.8333,329.5 59.5,329.833 59.5,330.5C 58.1667,329.833 57.1667,328.833 56.5,327.5C 56.5,326.833 56.5,326.167 56.5,325.5 Z"/></g>
<g><path style="opacity:0.443" fill="#f2a1ad" d="M 263.5,320.5 C 254.997,326.076 245.663,330.076 235.5,332.5C 236.429,331.685 237.429,330.852 238.5,330C 247.105,327.357 255.438,324.19 263.5,320.5 Z"/></g>
<g><path style="opacity:0.114" fill="#f19ba7" d="M 59.5,330.5 C 59.5,329.833 59.8333,329.5 60.5,329.5C 64.5216,331.522 67.5216,334.522 69.5,338.5C 65.8291,336.152 62.4958,333.486 59.5,330.5 Z"/></g>
<g><path style="opacity:0.173" fill="#ec798a" d="M 319.5,331.5 C 320.492,331.328 321.158,331.662 321.5,332.5C 318.48,335.516 315.146,338.183 311.5,340.5C 313.413,336.915 316.08,333.915 319.5,331.5 Z"/></g>
<g><path style="opacity:0.22" fill="#f0919f" d="M 160.5,322.5 C 159.181,326.159 157.848,329.826 156.5,333.5C 156.833,333.833 157.167,334.167 157.5,334.5C 183.954,340.171 209.954,339.505 235.5,332.5C 227.609,335.852 219.276,338.019 210.5,339C 192.036,340.173 173.703,339.34 155.5,336.5C 155.395,332.313 156.228,328.313 158,324.5C 158.708,323.619 159.542,322.953 160.5,322.5 Z"/></g>
<g><path style="opacity:0.263" fill="#f093a1" d="M 77.5,345.5 C 75.0905,344.299 73.0905,342.633 71.5,340.5C 71.8966,339.475 72.5632,339.308 73.5,340C 75.4641,341.451 76.7974,343.284 77.5,345.5 Z"/></g>
<g><path style="opacity:0.024" fill="#f199a6" d="M 309.5,342.5 C 307.525,344.137 305.525,345.804 303.5,347.5C 303.5,346.5 303.5,345.5 303.5,344.5C 305.132,343.554 306.799,342.554 308.5,341.5C 309.107,341.624 309.44,341.957 309.5,342.5 Z"/></g>
<g><path style="opacity:0.176" fill="#e96579" d="M 303.5,344.5 C 303.5,345.5 303.5,346.5 303.5,347.5C 302.151,348.953 300.485,349.953 298.5,350.5C 299.054,347.609 300.721,345.609 303.5,344.5 Z"/></g>
<g><path style="opacity:0.024" fill="#f092a0" d="M 89.5,351.5 C 89.5,352.167 89.5,352.833 89.5,353.5C 86.2109,351.868 83.2109,349.868 80.5,347.5C 80.56,346.957 80.8933,346.624 81.5,346.5C 83.9752,348.539 86.6418,350.205 89.5,351.5 Z"/></g>
<g><path style="opacity:0.125" fill="#ec7b8c" d="M 296.5,352.5 C 295.391,352.557 294.391,352.89 293.5,353.5C 294.14,350.318 295.14,349.985 296.5,352.5 Z"/></g>
<g><path style="opacity:0.237" fill="#e54e64" d="M 89.5,351.5 C 92.5362,353.226 95.5362,354.893 98.5,356.5C 97.209,356.263 96.209,356.596 95.5,357.5C 93.4918,356.164 91.4918,354.83 89.5,353.5C 89.5,352.833 89.5,352.167 89.5,351.5 Z"/></g>
<g><path style="opacity:0.039" fill="#eb6b7e" d="M 291.5,355.5 C 288.446,357.871 285.113,359.871 281.5,361.5C 281.5,360.167 281.5,358.833 281.5,357.5C 285.13,357.235 288.297,355.902 291,353.5C 291.464,354.094 291.631,354.761 291.5,355.5 Z"/></g>
<g><path style="opacity:0.118" fill="#ee8595" d="M 95.5,357.5 C 96.209,356.596 97.209,356.263 98.5,356.5C 99.0998,357.9 100.1,358.9 101.5,359.5C 101.5,360.167 101.5,360.833 101.5,361.5C 99.5,360.167 97.5,358.833 95.5,357.5 Z"/></g>
<g><path style="opacity:0.502" fill="#e64f64" d="M 101.5,359.5 C 105.457,359.489 108.79,360.822 111.5,363.5C 110.508,363.328 109.842,363.662 109.5,364.5C 106.857,363.546 104.19,362.546 101.5,361.5C 101.5,360.833 101.5,360.167 101.5,359.5 Z"/></g>
<g><path style="opacity:0.327" fill="#e65267" d="M 280.5,361.5 C 278.78,362.308 277.113,363.308 275.5,364.5C 275.657,362.182 276.824,360.516 279,359.5C 280.03,359.836 280.53,360.503 280.5,361.5 Z"/></g>
<g><path style="opacity:0.22" fill="#ec7a8c" d="M 273.5,364.5 C 273.158,365.338 272.492,365.672 271.5,365.5C 271.711,363.576 272.377,363.243 273.5,364.5 Z"/></g>
<g><path style="opacity:0.549" fill="#ec7585" d="M 111.5,363.5 C 114.443,364.459 116.776,366.125 118.5,368.5C 115.053,367.917 112.053,366.584 109.5,364.5C 109.842,363.662 110.508,363.328 111.5,363.5 Z"/></g>
<g><path style="opacity:0.757" fill="#e54b60" d="M 270.5,365.5 C 269.817,367.176 268.483,367.843 266.5,367.5C 266.44,366.957 266.107,366.624 265.5,366.5C 264.614,367.325 264.281,368.325 264.5,369.5C 262.486,369.392 260.82,370.058 259.5,371.5C 259.5,370.167 259.5,368.833 259.5,367.5C 262.553,366.282 265.72,365.282 269,364.5C 269.765,364.57 270.265,364.903 270.5,365.5 Z"/></g>
<g><path style="opacity:0.092" fill="#ef97a4" d="M 266.5,367.5 C 266.167,368.5 265.5,369.167 264.5,369.5C 264.281,368.325 264.614,367.325 265.5,366.5C 266.107,366.624 266.44,366.957 266.5,367.5 Z"/></g>
<g><path style="opacity:0.043" fill="#ef8e9d" d="M 127.5,372.5 C 126.609,371.89 125.609,371.557 124.5,371.5C 124.821,369.952 125.821,369.285 127.5,369.5C 127.5,370.5 127.5,371.5 127.5,372.5 Z"/></g>
<g><path style="opacity:0.02" fill="#f3a6b2" d="M 257.5,371.5 C 257.167,372.5 256.5,373.167 255.5,373.5C 255.281,372.325 255.614,371.325 256.5,370.5C 257.107,370.624 257.44,370.957 257.5,371.5 Z"/></g>
<g><path style="opacity:0.267" fill="#ee8090" d="M 132.5,374.5 C 131.391,374.443 130.391,374.11 129.5,373.5C 129.821,371.952 130.821,371.285 132.5,371.5C 132.5,372.5 132.5,373.5 132.5,374.5 Z"/></g>
<g><path style="opacity:0.973" fill="#e8586a" d="M 143.5,377.5 C 141.565,376.85 139.565,376.517 137.5,376.5C 137.719,375.325 137.386,374.325 136.5,373.5C 135.702,373.957 135.369,374.624 135.5,375.5C 134.833,375.5 134.5,375.167 134.5,374.5C 134.791,373.351 135.624,372.684 137,372.5C 138.877,373.253 140.711,374.086 142.5,375C 143.252,375.671 143.586,376.504 143.5,377.5 Z"/></g>
<g><path style="opacity:0.255" fill="#ee8999" d="M 253.5,373.5 C 252.609,374.11 251.609,374.443 250.5,374.5C 250.5,373.5 250.5,372.5 250.5,371.5C 252.179,371.285 253.179,371.952 253.5,373.5 Z"/></g>
<g><path style="opacity:0.122" fill="#f29dab" d="M 137.5,376.5 C 136.833,376.167 136.167,375.833 135.5,375.5C 135.369,374.624 135.702,373.957 136.5,373.5C 137.386,374.325 137.719,375.325 137.5,376.5 Z"/></g>
<g><path style="opacity:0.145" fill="#ef8b9b" d="M 248.5,374.5 C 247.71,375.401 246.71,376.068 245.5,376.5C 245.5,375.5 245.5,374.5 245.5,373.5C 246.791,373.263 247.791,373.596 248.5,374.5 Z"/></g>
<g><path style="opacity:0.604" fill="#e8586b" d="M 243.5,376.5 C 241.883,377.038 240.216,377.371 238.5,377.5C 237.095,375.547 237.761,374.547 240.5,374.5C 242.03,374.64 243.03,375.307 243.5,376.5 Z"/></g>
<g><path style="opacity:0.365" fill="#f091a0" d="M 150.5,379.5 C 149.005,379.011 147.671,378.345 146.5,377.5C 148.709,376.024 150.042,376.691 150.5,379.5 Z"/></g>
<g><path style="opacity:0.824" fill="#e54e65" d="M 229.5,379.5 C 229.167,379.5 228.833,379.5 228.5,379.5C 227.791,378.596 226.791,378.263 225.5,378.5C 225.5,379.5 225.5,380.5 225.5,381.5C 224.5,381.5 223.5,381.5 222.5,381.5C 222.5,380.167 222.5,378.833 222.5,377.5C 225.388,376.99 227.721,377.656 229.5,379.5 Z"/></g>
<g><path style="opacity:0.218" fill="#ec7183" d="M 236.5,377.5 C 235.22,378.931 233.553,379.598 231.5,379.5C 231.5,378.5 231.5,377.5 231.5,376.5C 233.415,376.216 235.081,376.549 236.5,377.5 Z"/></g>
<g><path style="opacity:0.067" fill="#f4b8c0" d="M 157.5,381.5 C 156.5,381.167 155.833,380.5 155.5,379.5C 155.56,378.957 155.893,378.624 156.5,378.5C 157.386,379.325 157.719,380.325 157.5,381.5 Z"/></g>
<g><path style="opacity:0.749" fill="#e7556c" d="M 219.5,380.5 C 217.167,380.5 214.833,380.5 212.5,380.5C 212.5,381.5 212.5,382.5 212.5,383.5C 211.5,383.5 210.5,383.5 209.5,383.5C 209.5,382.167 209.5,380.833 209.5,379.5C 213.042,379.187 216.375,379.521 219.5,380.5 Z"/></g>
<g><path style="opacity:0.078" fill="#f2a1ad" d="M 228.5,379.5 C 227.5,380.167 226.5,380.833 225.5,381.5C 225.5,380.5 225.5,379.5 225.5,378.5C 226.791,378.263 227.791,378.596 228.5,379.5 Z"/></g>
<g><path style="opacity:0.098" fill="#e65169" d="M 163.5,380.5 C 166.625,379.521 169.958,379.187 173.5,379.5C 173.5,380.833 173.5,382.167 173.5,383.5C 172.5,383.5 171.5,383.5 170.5,383.5C 170.5,382.5 170.5,381.5 170.5,380.5C 168.167,380.5 165.833,380.5 163.5,380.5 Z"/></g>
<g><path style="opacity:0.447" fill="#f19aa8" d="M 204.5,383.5 C 196.5,383.5 188.5,383.5 180.5,383.5C 184.107,382.176 188.107,381.509 192.5,381.5C 196.893,381.509 200.893,382.176 204.5,383.5 Z"/></g>
<g><path style="opacity:0.016" fill="#f19eaa" d="M 219.5,380.5 C 219.5,380.833 219.5,381.167 219.5,381.5C 217.167,382.167 214.833,382.833 212.5,383.5C 212.5,382.5 212.5,381.5 212.5,380.5C 214.833,380.5 217.167,380.5 219.5,380.5 Z"/></g>
<g><path style="opacity:0.008" fill="#ef93a1" d="M 163.5,381.5 C 163.5,381.167 163.5,380.833 163.5,380.5C 165.833,380.5 168.167,380.5 170.5,380.5C 170.5,381.5 170.5,382.5 170.5,383.5C 168.167,382.833 165.833,382.167 163.5,381.5 Z"/></g>
</svg>
